<svg width="24" height="22" viewBox="0 0 24 22" fill="none" xmlns="http://www.w3.org/2000/svg">
<path d="M22.9541 9.12293L20.3079 1.61523H3.69253L1.10791 8.93831V20.6306H22.9541V9.12293ZM4.36945 2.53831H19.631L21.7848 8.63062H2.2156L4.36945 2.53831ZM21.9694 19.7691H2.03099V9.5537H22.031L21.9694 19.7691Z" fill="#e55472" stroke="#e55472" stroke-width="0.692308" stroke-linejoin="round"/>
<path d="M15.6904 12.2609L15.5978 12.1619C15.3367 11.8826 14.8986 11.8679 14.6193 12.129C14.616 12.1321 14.6128 12.1352 14.6095 12.1383L10.6503 15.9876L9.39103 14.7633C9.11689 14.4968 8.67859 14.503 8.41206 14.7771C8.40893 14.7803 8.40583 14.7836 8.40276 14.7869L8.31017 14.8859C8.05261 15.1613 8.06287 15.5922 8.33325 15.8551L10.1677 17.6386C10.4364 17.8998 10.8642 17.8998 11.1329 17.6386L15.6673 13.2301C15.9377 12.9672 15.948 12.5363 15.6904 12.2609Z" fill="#e55472"/>
<path d="M12.4617 2.69238H11.5386V8.23084H12.4617V2.69238Z" fill="#D8D8D8" stroke="#e55472" stroke-width="0.923077"/>
</svg>
